<svg width="37" height="36" viewBox="0 0 37 36" fill="none" xmlns="http://www.w3.org/2000/svg">
<path d="M28.8654 2.74602C27.1441 2.51496 24.8753 2.51164 21.6821 2.51164C21.3491 2.51164 21.0297 2.37932 20.7942 2.14383C20.5587 1.90828 20.4264 1.58887 20.4264 1.25581C20.4264 0.922752 20.5587 0.603332 20.7942 0.36782C21.0297 0.132308 21.3491 0 21.6821 0H21.7759C24.8535 0 27.2914 9.90354e-08 29.1986 0.256187C31.1611 0.520743 32.75 1.07665 34.0042 2.32909C35.1495 3.4761 35.7758 4.56613 36.0687 6.24894C36.3333 7.7626 36.3333 9.80202 36.3333 12.816V12.9767C36.3333 13.3098 36.201 13.6292 35.9655 13.8648C35.73 14.1003 35.4105 14.2326 35.0775 14.2326C34.7444 14.2326 34.425 14.1003 34.1895 13.8648C33.954 13.6292 33.8217 13.3098 33.8217 12.9767C33.8217 9.76187 33.8166 7.95179 33.5957 6.68094C33.398 5.55402 33.0431 4.92109 32.2277 4.10566C31.5193 3.3974 30.5482 2.97211 28.8638 2.74602M2.84495 23.0233C2.84495 22.6902 2.71264 22.3708 2.47714 22.1352C2.24159 21.8997 1.92219 21.7674 1.58913 21.7674C1.25606 21.7674 0.936645 21.8997 0.701133 22.1352C0.465621 22.3708 0.333313 22.6902 0.333313 23.0233V23.184C0.333313 26.198 0.333313 28.2374 0.597869 29.7511C0.890892 31.4339 1.51713 32.5239 2.6624 33.6692C3.91659 34.925 5.50557 35.4793 7.46801 35.7438C9.37685 36 11.8131 36 14.8907 36H14.9845C15.3176 36 15.637 35.8677 15.8725 35.6322C16.108 35.3967 16.2403 35.0772 16.2403 34.7442C16.2403 34.4111 16.108 34.0917 15.8725 33.8562C15.637 33.6207 15.3176 33.4884 14.9845 33.4884C11.7913 33.4884 9.52422 33.485 7.80121 33.254C6.1184 33.0279 5.14729 32.6026 4.43897 31.8943C3.62355 31.0789 3.26687 30.446 3.07097 29.3191C2.84999 28.0482 2.84495 26.2381 2.84495 23.0233ZM36.3333 23.0233C36.3333 22.6902 36.201 22.3708 35.9655 22.1352C35.73 21.8997 35.4105 21.7674 35.0775 21.7674C34.7444 21.7674 34.425 21.8997 34.1895 22.1352C33.954 22.3708 33.8217 22.6902 33.8217 23.0233C33.8217 26.2381 33.8166 28.0482 33.5957 29.3191C33.398 30.446 33.0431 31.0789 32.2277 31.8943C31.5193 32.6026 30.5482 33.0279 28.8638 33.254C27.1441 33.485 24.8753 33.4884 21.6821 33.4884C21.3491 33.4884 21.0297 33.6207 20.7942 33.8562C20.5587 34.0917 20.4264 34.4111 20.4264 34.7442C20.4264 35.0772 20.5587 35.3967 20.7942 35.6322C21.0297 35.8677 21.3491 36 21.6821 36H21.7759C24.8535 36 27.2914 36 29.1986 35.7438C31.1611 35.4793 32.75 34.9233 34.0042 33.6709C35.1495 32.5239 35.7758 31.4339 36.0687 29.7511C36.3333 28.2374 36.3333 26.1963 36.3333 23.184V23.0233ZM14.9845 0H14.8907C11.8131 0 9.37518 9.90354e-08 7.46801 0.256187C5.50557 0.520743 3.91659 1.07665 2.6624 2.32909C1.51713 3.4761 0.890892 4.56613 0.597869 6.24894C0.333313 7.7626 0.333313 9.80202 0.333313 12.816V12.9767C0.333313 13.3098 0.465621 13.6292 0.701133 13.8648C0.936645 14.1003 1.25606 14.2326 1.58913 14.2326C1.92219 14.2326 2.24159 14.1003 2.47714 13.8648C2.71264 13.6292 2.84495 13.3098 2.84495 12.9767C2.84495 9.76187 2.84999 7.95179 3.07097 6.68094C3.26859 5.55402 3.62355 4.92109 4.43897 4.10566C5.14729 3.3974 6.1184 2.97211 7.80287 2.74602C9.52422 2.51496 11.7913 2.51164 14.9845 2.51164C15.3176 2.51164 15.637 2.37932 15.8725 2.14383C16.108 1.90828 16.2403 1.58887 16.2403 1.25581C16.2403 0.922752 16.108 0.603332 15.8725 0.36782C15.637 0.132308 15.3176 0 14.9845 0Z" fill="#262936"/>
<path fill-rule="evenodd" clip-rule="evenodd" d="M18.3333 13.2923C17.0848 13.2923 15.8874 13.7883 15.0045 14.6712C14.1216 15.554 13.6256 16.7515 13.6256 18C13.6256 19.2485 14.1216 20.4459 15.0045 21.3288C15.8874 22.2117 17.0848 22.7077 18.3333 22.7077C19.5818 22.7077 20.7793 22.2117 21.6621 21.3288C22.545 20.4459 23.041 19.2485 23.041 18C23.041 16.7515 22.545 15.554 21.6621 14.6712C20.7793 13.7883 19.5818 13.2923 18.3333 13.2923ZM16.1935 18C16.1935 17.4325 16.4189 16.8882 16.8202 16.4869C17.2215 16.0856 17.7658 15.8601 18.3333 15.8601C18.9008 15.8601 19.4451 16.0856 19.8464 16.4869C20.2477 16.8882 20.4731 17.4325 20.4731 18C20.4731 18.5675 20.2477 19.1118 19.8464 19.5131C19.4451 19.9144 18.9008 20.1398 18.3333 20.1398C17.7658 20.1398 17.2215 19.9144 16.8202 19.5131C16.4189 19.1118 16.1935 18.5675 16.1935 18Z" fill="#262936"/>
<path fill-rule="evenodd" clip-rule="evenodd" d="M7.12159 13.7016C9.25445 11.2187 12.9189 8.30768 18.3333 8.30768C23.7477 8.30768 27.4122 11.2187 29.545 13.7016L29.5988 13.7657C30.0522 14.295 30.5224 14.8395 30.8432 15.4918C31.2026 16.2216 31.3487 17.0038 31.3487 18C31.3487 18.9945 31.2026 19.7783 30.8449 20.5082C30.5224 21.1605 30.0539 21.705 29.5988 22.2342L29.545 22.2966C27.4122 24.7812 23.7477 27.6923 18.3333 27.6923C12.9189 27.6923 9.25445 24.7812 7.12159 22.2983L7.06786 22.2342C6.61443 21.705 6.14422 21.1605 5.82343 20.5082C5.46404 19.7783 5.31793 18.9962 5.31793 18C5.31793 17.0054 5.46404 16.2216 5.82177 15.4918C6.14422 14.8395 6.61277 14.295 7.06786 13.7657L7.12159 13.7016ZM18.3333 10.8361C13.9148 10.8361 10.8869 13.1909 9.02942 15.3535C8.50377 15.9671 8.24684 16.279 8.08057 16.6127C7.94117 16.8976 7.83705 17.2684 7.83705 18C7.83705 18.7316 7.94117 19.1024 8.08057 19.3873C8.24684 19.721 8.50377 20.0328 9.02942 20.6464C10.8869 22.809 13.9148 25.1639 18.3333 25.1639C22.7518 25.1639 25.7798 22.809 27.6372 20.6464C28.1645 20.0328 28.4198 19.721 28.5861 19.3873C28.7255 19.1024 28.8296 18.7316 28.8296 18C28.8296 17.2684 28.7255 16.8976 28.5861 16.6127C28.4198 16.279 28.1629 15.9671 27.6356 15.3535C25.7815 13.1909 22.7535 10.8361 18.3333 10.8361Z" fill="#262936"/>
</svg>
