<svg width="34" height="34" viewBox="0 0 34 34" fill="none" xmlns="http://www.w3.org/2000/svg">
<path d="M21.5334 32.8666H20.4C20.4 33.0771 20.4586 33.2835 20.5693 33.4625C20.6799 33.6415 20.8382 33.7862 21.0265 33.8803C21.2147 33.9745 21.4255 34.0143 21.6351 33.9954C21.8447 33.9765 22.0449 33.8996 22.2134 33.7734L21.5334 32.8666ZM26.0666 29.4666L26.7466 28.56C26.5505 28.4129 26.3119 28.3334 26.0666 28.3334C25.8215 28.3334 25.5829 28.4129 25.3867 28.56L26.0666 29.4666ZM30.6 32.8666L29.92 33.7734C30.0884 33.8996 30.2886 33.9765 30.4982 33.9954C30.7079 34.0143 30.9186 33.9745 31.1068 33.8803C31.2951 33.7862 31.4534 33.6415 31.5641 33.4625C31.6747 33.2835 31.7334 33.0771 31.7334 32.8666H30.6ZM26.0666 24.9334C24.5638 24.9334 23.1224 24.3363 22.0597 23.2736C20.997 22.2109 20.4 20.7696 20.4 19.2666H18.1334C18.1334 21.3707 18.9692 23.3886 20.457 24.8764C21.9448 26.3641 23.9626 27.2 26.0666 27.2V24.9334ZM31.7334 19.2666C31.7334 20.7696 31.1363 22.2109 30.0736 23.2736C29.0109 24.3363 27.5696 24.9334 26.0666 24.9334V27.2C28.1707 27.2 30.1886 26.3641 31.6764 24.8764C33.1642 23.3886 34 21.3707 34 19.2666H31.7334ZM26.0666 13.6C27.5696 13.6 29.0109 14.197 30.0736 15.2597C31.1363 16.3224 31.7334 17.7638 31.7334 19.2666H34C34 17.1626 33.1642 15.1448 31.6764 13.657C30.1886 12.1691 28.1707 11.3334 26.0666 11.3334V13.6ZM26.0666 11.3334C23.9626 11.3334 21.9448 12.1691 20.457 13.657C18.9692 15.1448 18.1334 17.1626 18.1334 19.2666H20.4C20.4 17.7638 20.997 16.3224 22.0597 15.2597C23.1224 14.197 24.5638 13.6 26.0666 13.6V11.3334ZM20.4 23.8V32.8666H22.6666V23.8H20.4ZM22.2134 33.7734L26.7466 30.3734L25.3867 28.56L20.8534 31.96L22.2134 33.7734ZM25.3867 30.3734L29.92 33.7734L31.28 31.96L26.7466 28.56L25.3867 30.3734ZM31.7334 32.8666V23.8H29.4666V32.8666H31.7334ZM34 11.3334V3.4H31.7334V11.3334H34ZM30.6 0H3.4V2.26665H30.6V0ZM0 3.4V30.6H2.26665V3.4H0ZM3.4 34H18.1334V31.7334H3.4V34ZM0 30.6C0 31.5017 0.358212 32.3665 0.995816 33.0042C1.63348 33.6418 2.49829 34 3.4 34V31.7334C3.09943 31.7334 2.81114 31.6139 2.59859 31.4014C2.38609 31.1889 2.26665 30.9006 2.26665 30.6H0ZM3.4 0C2.49829 0 1.63348 0.358212 0.995816 0.995816C0.358212 1.63348 0 2.49829 0 3.4H2.26665C2.26665 3.09943 2.38609 2.81114 2.59859 2.59859C2.81114 2.38609 3.09943 2.26665 3.4 2.26665V0ZM34 3.4C34 2.49829 33.6418 1.63348 33.0042 0.995816C32.3665 0.358212 31.5017 0 30.6 0V2.26665C30.9006 2.26665 31.1889 2.38609 31.4014 2.59859C31.6139 2.81114 31.7334 3.09943 31.7334 3.4H34ZM6.8 11.3334H18.1334V9.06665H6.8V11.3334ZM6.8 18.1334H13.6V15.8666H6.8V18.1334Z" fill="#262936"/>
</svg>
