<svg width="40" height="38" viewBox="0 0 40 38" fill="none" xmlns="http://www.w3.org/2000/svg">
<path d="M5.60002 17.3L4.727 17.5178C3.94816 17.7125 3.25677 18.1619 2.76267 18.7946C2.26857 19.4273 2.00012 20.207 2 21.0098V24.3884C2.00012 25.1911 2.26857 25.9709 2.76267 26.6036C3.25677 27.2363 3.94816 27.6857 4.727 27.8804L7.859 28.6634C8.01814 28.703 8.18424 28.7059 8.34468 28.6718C8.50506 28.6376 8.65561 28.5674 8.78488 28.4665C8.91411 28.3655 9.01865 28.2364 9.09058 28.0891C9.16251 27.9416 9.19993 27.7798 9.19998 27.6158V17.7824C9.19998 17.6182 9.16256 17.4561 9.09052 17.3086C9.01849 17.161 8.91378 17.0318 8.78429 16.9308C8.65485 16.8298 8.50403 16.7596 8.34338 16.7257C8.18273 16.6917 8.01647 16.6948 7.85722 16.7348L5.60002 17.3ZM5.60002 17.3V16.4C5.60002 12.5809 7.11715 8.91821 9.81763 6.21767C12.5182 3.51713 16.1809 2 20 2C23.8191 2 27.4818 3.51713 30.1823 6.21767C32.8829 8.91821 34.4 12.5809 34.4 16.4V17.3M34.4 17.3L35.273 17.5178C36.0518 17.7125 36.7432 18.1619 37.2373 18.7946C37.7314 19.4273 37.9998 20.207 38 21.0098V24.3884C37.9998 25.1911 37.7314 25.9709 37.2373 26.6036C36.7432 27.2363 36.0518 27.6857 35.273 27.8804L34.4 28.1M34.4 17.3L32.141 16.7348C31.9818 16.6952 31.8158 16.6923 31.6553 16.7264C31.4949 16.7605 31.3443 16.8307 31.2151 16.9317C31.0858 17.0327 30.9813 17.1617 30.9094 17.3092C30.8374 17.4565 30.8 17.6184 30.8 17.7824V27.6158C30.8 27.7798 30.8374 27.9416 30.9094 28.0891C30.9813 28.2364 31.0858 28.3655 31.2151 28.4665C31.3443 28.5674 31.4949 28.6376 31.6553 28.6718C31.8158 28.7059 31.9818 28.703 32.141 28.6634L34.4 28.1M34.4 28.1V29.9C34.4 30.8548 34.0207 31.7705 33.3456 32.4456C32.6704 33.1207 31.7547 33.5 30.8 33.5H25.4M25.4 33.5C25.4 32.7839 25.1155 32.0972 24.6092 31.5908C24.1028 31.0844 23.4161 30.8 22.7 30.8H17.3C16.5839 30.8 15.8972 31.0844 15.3908 31.5908C14.8845 32.0972 14.6 32.7839 14.6 33.5C14.6 34.2161 14.8845 34.9028 15.3908 35.4092C15.8972 35.9155 16.5839 36.2 17.3 36.2H22.7C23.4161 36.2 24.1028 35.9155 24.6092 35.4092C25.1155 34.9028 25.4 34.2161 25.4 33.5Z" stroke="#262936" stroke-width="3"/>
</svg>
