<svg width="64" height="64" viewBox="0 0 64 64" fill="none" xmlns="http://www.w3.org/2000/svg">
<path d="M31.9997 16.9994V37.9994M31.9997 37.9994L40.9997 28.9994M31.9997 37.9994L22.9997 28.9994" stroke="#262936" stroke-width="4" stroke-linecap="round" stroke-linejoin="round"/>
<path d="M44 47H20M62 31.9999C62 46.142 62 53.2129 57.6049 57.6049C53.216 62 46.142 62 32 62C17.858 62 10.787 62 6.39201 57.6049C2 53.216 2 46.142 2 31.9999C2 17.858 2 10.7869 6.39201 6.39198C10.79 2 17.858 2 32 2C46.142 2 53.213 2 57.6049 6.39198C60.527 9.31401 61.505 13.421 61.8349 20" stroke="#262936" stroke-width="4" stroke-linecap="round"/>
</svg>
