<svg width="66" height="54" viewBox="0 0 66 54" fill="none" xmlns="http://www.w3.org/2000/svg">
<path d="M26.667 39.334H31.167M40.167 39.334H50.6669M2.66699 18.334H62.667M2.66699 27.334C2.66699 16.723 2.66699 11.416 5.826 7.87295C6.33198 7.30496 6.88602 6.78296 7.48803 6.30695C11.253 3.33399 16.89 3.33398 28.167 3.33398H37.167C48.4439 3.33398 54.081 3.33399 57.843 6.30398C58.447 6.78395 59.0019 7.30694 59.508 7.87295C62.667 11.413 62.667 16.723 62.667 27.334C62.667 37.9449 62.667 43.2519 59.508 46.795C58.9993 47.3641 58.4422 47.8881 57.843 48.361C54.081 51.3339 48.447 51.3339 37.167 51.3339H28.167C16.89 51.3339 11.253 51.3339 7.48803 48.3639C6.88971 47.89 6.3336 47.365 5.826 46.795C2.66699 43.2549 2.66699 37.9449 2.66699 27.334Z" stroke="#262936" stroke-width="5" stroke-linecap="round" stroke-linejoin="round"/>
</svg>
